inDegrees=yes
name=ik_Shooting_orientations.mot
DataType=double
version=3
OpenSimVersion=4.3-2021-08-27-4bc7ad9
endheader
time	pelvis_tilt	pelvis_list	pelvis_rotation	pelvis_tx	pelvis_ty	pelvis_tz	hip_flexion_r	hip_adduction_r	hip_rotation_r	knee_angle_r	knee_angle_r_beta	ankle_angle_r	subtalar_angle_r	mtp_angle_r	hip_flexion_l	hip_adduction_l	hip_rotation_l	knee_angle_l	knee_angle_l_beta	ankle_angle_l	subtalar_angle_l	mtp_angle_l	lumbar_extension	lumbar_bending	lumbar_rotation	arm_flex_r	arm_add_r	arm_rot_r	elbow_flex_r	pro_sup_r	wrist_flex_r	wrist_dev_r	arm_flex_l	arm_add_l	arm_rot_l	elbow_flex_l	pro_sup_l	wrist_flex_l	wrist_dev_l
7.649999999999881	23.07899931612755	-63.56798671246919	27.29076628987153	0	0.93	0	-29.99820021146366	29.99728273978433	-39.99878267966541	52.61537879951786	0.9183115972356081	-4.998461852586431	0	0	21.29579255168745	-33.6912344107396	-39.99806283380902	52.61537879951786	0.9183115972356082	-4.998461852556678	0	0	0	0	0	0	0	0	1.023394443035834e-38	0	0	0	0	0	0	1.023394443035834e-38	0	0	0
7.659999999999881	22.66517012642507	-63.16326360980157	26.91717541625905	0	0.93	0	-29.99819386889217	29.99728287649777	-39.99878377562142	52.62788371787703	0.9185298492336688	-4.998476040730852	0	0	20.84548633812517	-33.19862742016219	-39.99806984102878	52.62788371787704	0.9185298492336689	-4.998476040701371	0	0	0	0	0	0	0	0	5.110055619713527e-40	3.745201516961727e-38	0	0	0	0	0	5.110055619713527e-40	3.745201516961727e-38	0	0
7.669999999999881	6.159274763048605	-29.40212438671156	2.088171676878597	0	0.93	0	-29.99639000935484	29.98525987507536	-39.9988217492547	52.78060541938402	0.9211953457642136	-4.998652465358773	0	0	-29.98135764249015	29.97340538903952	-39.99840995550984	52.78060541938402	0.9211953457642137	-4.998652465321814	0	0	0	0	0	0	1.347017302871753e-36	0	0	8.896090224004668e-40	0	0	0	1.347017302871753e-36	0	0	4.088085113901595e-39	0	0
7.679999999999881	-1.776641674845906	-77.10537632532169	-6.463888446911317	0	0.93	0	-29.99805721784921	29.99743452022094	-39.99837317800554	54.46385905775934	0.9505736639000369	-4.99962961422481	0	0	48.84743136460595	-49.98841151033259	-39.99749451498545	54.46385905775941	0.9505736639000383	-4.99962961421465	0	0	0	0	0	0	0	0	1.479951659110068e-40	0	0	0	0	0	0	1.479951659110068e-40	0	0	0
7.68999999999988	22.91761722749687	-65.27475071169016	25.87956200403336	0	0.93	0	-29.99821646258354	29.99732710414425	-39.99874589172187	54.48025637905872	0.9508598511452184	-4.999635932907283	0	0	26.07732220400047	-38.55540430965389	-39.9979138742365	54.48025637905878	0.9508598511452196	-4.999635932897252	0	0	0	0	0	0	0	0	0	0	0	0	0	0	0	0	0	0	0
7.69999999999988	3.700498501505677	-81.52933349980593	4.713728246816443	0	0.93	0	-29.99817198735776	29.99786959456499	-39.99841813237112	54.51319185015906	0.951434683556615	-4.999648076921949	0	0	47.53432480290089	-49.98661106000692	-39.99708172665974	54.51319185015913	0.9514346835566162	-4.999648076912168	0	0	0	0	0	0	0	0	0	0	0	0	0	0	0	0	0	0	0
7.70999999999988	18.30444513572019	-79.91582261241916	15.07821308351629	0	0.93	0	-29.99825202607651	29.99759076233114	-39.99843397042002	54.52769100143318	0.9516877414850929	-4.999653449550191	5.531844336374187e-18	9.497916718071801e-19	45.59662493900743	-49.99033417525599	-39.99726302231015	54.52769100143325	0.9516877414850942	-4.999653449540638	-4.55447101954672e-18	-2.684985019268015e-19	0	3.953105490321701e-18	-3.507329357967162e-35	-2.031196025756281e-19	6.119408760952834e-24	8.782704593132442e-17	0	0	-2.498993615706785e-18	-1.938657763720186e-17	-2.699828076722641e-17	-7.700677371087338e-17	-1.476264266918983e-16	0	0	-6.336528592335585e-18	-2.565450876319191e-18
7.71999999999988	25.89079233290664	-61.47134575392668	35.7707705737661	0	0.93	0	-29.99828775059654	29.99759090193088	-39.99885806035623	54.53823430840774	0.9518717569058476	-4.999657278520384	0	0	17.29130246519567	-31.44167986843924	-39.99780778443772	54.53823430840781	0.9518717569058488	-4.999657278508476	0	0	0	0	0	0	0	0	0	0	0	0	0	0	0	0	0	0	0
7.72999999999988	8.907820213938047	-24.15092384325877	9.24420353939251	0	0.93	0	-29.99672681203041	29.98305700744926	-39.99892979337832	54.54280818593495	0.9519515861282805	-4.999658916296572	0	0	-29.98624115629108	29.83147474177592	-39.99823442117332	54.54280818593502	0.9519515861282817	-4.999658916081507	0	0	0	0	0	0	0	0	0	0	0	0	0	0	0	0	0	0	0
7.739999999999879	13.89641463088707	-40.60409481711166	18.96548917317389	0	0.93	0	-29.99776756533505	29.99537405430612	-39.99892987283736	54.58619958880052	0.9527089089753439	-4.999673995787212	0	0	-12.47591531636271	2.343476726501532	-39.99839171600451	54.58619958880054	0.9527089089753442	-4.99967399558166	0	0	0	0	0	0	0	0	5.018966548951721e-39	0	0	0	0	0	0	5.018966548951721e-39	0	0	0
7.749999999999879	21.53170283522338	-66.17732796737673	23.13875425120145	0	0.93	0	-29.99822078505691	29.99731264686122	-39.99870831215794	54.68359903217555	0.9544088499518479	-4.999705512072505	0	0	29.97369827754317	-43.00533801989079	-39.99770766269043	54.68359903217557	0.9544088499518483	-4.999705511886866	0	0	0	0	0	0	0	0	1.515561877263937e-39	0	0	0	0	0	0	1.515561877263937e-39	0	0	0
7.759999999999879	34.10546740479769	-60.73664129774944	39.78087767034668	0	0.93	0	-29.99842158321684	29.99737717365914	-39.99886093072571	54.68982249939152	0.9545174699456564	-4.999707486001514	0	0	17.95557189573782	-37.41128401707036	-39.9976890862527	54.68982249939153	0.9545174699456568	-4.999707485817135	0	0	0	0	0	0	0	0	0	5.461373801895299e-40	0	0	0	0	0	0	5.461373801895299e-40	0	0
7.769999999999879	-6.459302121140955	-75.17591896504253	-11.58394175690206	0	0.93	0	-29.99801616387953	29.9974047759724	-39.99833700339042	54.70231773085016	0.9547355528754086	-4.999711416215474	0	0	48.94970769423649	-49.9891872920297	-39.99741224823791	54.70231773085018	0.9547355528754089	-4.999711416033557	0	0	0	0	0	0	0	0	0	0	0	0	0	0	0	0	0	0	0
7.779999999999879	15.64810244583996	-47.44470395689768	26.56010730408924	0	0.93	0	-29.99800949617724	29.99695058220137	-39.99893928987538	54.71199397278972	0.9549044351564735	-4.999714448324853	0	0	0.1705006270874898	-11.72980092444015	-39.99813196293736	54.71199397278974	0.9549044351564738	-4.999714448144857	0	0	0	0	0	0	0	0	0	2.193488230875884e-39	0	0	0	0	0	0	2.193488230875884e-39	0	0
7.789999999999878	19.5639560643956	-64.01588492057847	21.78338140069107	0	0.93	0	-29.99819548752996	29.99730895727913	-39.99872366053625	54.7179874735707	0.9550090414788225	-4.999716315038874	-7.070016781995458e-19	1.373477871729525e-19	26.74398016199276	-39.66319922726712	-39.99779851198758	54.71798747357072	0.9550090414788228	-4.999716314860062	-1.235832546740418e-20	4.892071729566548e-20	0	7.621161502794013e-18	4.065659768686746e-36	-3.557001504146598e-17	-1.116902733750886e-28	3.772519620202228e-18	0	0	-1.058079601284197e-17	-9.537661509210616e-18	1.42783377436052e-16	-8.326907720101278e-17	-2.260041141417607e-17	0	0	-1.256152553857641e-17	7.62362756223723e-18
7.799999999999878	18.99842464293878	-63.31596456751392	21.52589273834446	0	0.93	0	-29.99818859244036	29.99730396113344	-39.99872978351768	54.72533459752241	0.9551372729823319	-4.999718278580225	0	0	25.5037493848732	-38.32886486630316	-39.99783564937213	54.72533459752243	0.9551372729823322	-4.999718278402641	0	0	0	0	0	0	0	0	5.275947966250165e-39	2.889511079299865e-40	0	0	0	0	0	5.275947966250165e-39	2.889511079299865e-40	0	0
7.809999999999878	22.53663525412462	-60.11837759846448	32.0939818185314	0	0.93	0	-29.99826117073655	29.99760068868266	-39.99884498885329	54.73011638989487	0.9552207310033781	-4.999719753304062	0	0	16.96119759746776	-31.14380624650599	-39.99774355415295	54.73011638989489	0.9552207310033785	-4.999719753127404	0	0	0	0	0	0	0	0	0	0	0	0	0	0	0	0	0	0	0
7.819999999999878	21.91487840735043	-59.84482765400808	31.31519592681308	0	0.93	0	-29.9982525774833	29.99758175530066	-39.99884278441229	54.73551252950173	0.955314911406415	-4.999721310846213	-8.929959625260299e-22	1.168894818452688e-22	16.5507904137455	-30.57079611809046	-39.99776533175879	54.73551252950175	0.9553149114064153	-4.99972131067053	-1.260546327034414e-21	-1.445706636870885e-21	0	-1.730303246996228e-23	2.036459132568497e-35	6.32496155682042e-17	-5.715306348093584e-28	-2.015512085293755e-17	2.560617620349616e-16	2.560618154583862e-16	4.547320676702519e-24	1.010636235001872e-25	6.741359613268255e-18	-3.038472883353355e-17	4.408914280869362e-17	2.560617620344644e-16	2.560618154616405e-16	9.166235619784419e-24	3.174735650560442e-25
